<mxfile host="app.diagrams.net" agent="Mozilla/5.0 (Windows NT 10.0; Win64; x64) AppleWebKit/537.36 (KHTML, like Gecko) Chrome/132.0.0.0 Safari/537.36" version="26.0.15">
  <diagram name="Page-1" id="klqIEGniNHVyHD8kHnu4">
    <mxGraphModel dx="533" dy="284" grid="1" gridSize="10" guides="1" tooltips="1" connect="1" arrows="1" fold="1" page="1" pageScale="1" pageWidth="827" pageHeight="1169" math="0" shadow="0">
      <root>
        <mxCell id="0" />
        <mxCell id="1" parent="0" />
        <mxCell id="AU4acMlLYk_gXnLBwo3J-3" style="edgeStyle=orthogonalEdgeStyle;rounded=0;orthogonalLoop=1;jettySize=auto;html=1;entryX=0.5;entryY=0;entryDx=0;entryDy=0;exitX=0.5;exitY=1;exitDx=0;exitDy=0;" parent="1" source="AU4acMlLYk_gXnLBwo3J-2" edge="1" target="AU4acMlLYk_gXnLBwo3J-4">
          <mxGeometry relative="1" as="geometry">
            <mxPoint x="410" y="210" as="targetPoint" />
          </mxGeometry>
        </mxCell>
        <mxCell id="1XEhLyZAtqv81aEH1Q0F-35" style="edgeStyle=orthogonalEdgeStyle;rounded=0;orthogonalLoop=1;jettySize=auto;html=1;entryX=0.5;entryY=0;entryDx=0;entryDy=0;exitX=0.5;exitY=1;exitDx=0;exitDy=0;" edge="1" parent="1" source="AU4acMlLYk_gXnLBwo3J-2" target="1XEhLyZAtqv81aEH1Q0F-32">
          <mxGeometry relative="1" as="geometry">
            <mxPoint x="530" y="140" as="sourcePoint" />
          </mxGeometry>
        </mxCell>
        <mxCell id="1XEhLyZAtqv81aEH1Q0F-36" style="edgeStyle=orthogonalEdgeStyle;rounded=0;orthogonalLoop=1;jettySize=auto;html=1;exitX=0.5;exitY=1;exitDx=0;exitDy=0;" edge="1" parent="1" source="AU4acMlLYk_gXnLBwo3J-2" target="1XEhLyZAtqv81aEH1Q0F-31">
          <mxGeometry relative="1" as="geometry" />
        </mxCell>
        <mxCell id="AU4acMlLYk_gXnLBwo3J-2" value="Basic app algorithm&amp;nbsp;" style="ellipse;whiteSpace=wrap;html=1;" parent="1" vertex="1">
          <mxGeometry x="350" y="60" width="120" height="80" as="geometry" />
        </mxCell>
        <mxCell id="1XEhLyZAtqv81aEH1Q0F-7" value="" style="edgeStyle=orthogonalEdgeStyle;rounded=0;orthogonalLoop=1;jettySize=auto;html=1;" edge="1" parent="1" source="AU4acMlLYk_gXnLBwo3J-4" target="1XEhLyZAtqv81aEH1Q0F-6">
          <mxGeometry relative="1" as="geometry" />
        </mxCell>
        <mxCell id="AU4acMlLYk_gXnLBwo3J-4" value="bill value generation algorithm&amp;nbsp;" style="rounded=1;whiteSpace=wrap;html=1;" parent="1" vertex="1">
          <mxGeometry x="230" y="210" width="120" height="80" as="geometry" />
        </mxCell>
        <mxCell id="1XEhLyZAtqv81aEH1Q0F-11" value="" style="edgeStyle=orthogonalEdgeStyle;rounded=0;orthogonalLoop=1;jettySize=auto;html=1;" edge="1" parent="1" source="1XEhLyZAtqv81aEH1Q0F-1" target="1XEhLyZAtqv81aEH1Q0F-10">
          <mxGeometry relative="1" as="geometry" />
        </mxCell>
        <mxCell id="1XEhLyZAtqv81aEH1Q0F-1" value="change input calculation" style="rounded=1;whiteSpace=wrap;html=1;" vertex="1" parent="1">
          <mxGeometry x="470" y="210" width="120" height="80" as="geometry" />
        </mxCell>
        <mxCell id="1XEhLyZAtqv81aEH1Q0F-2" style="edgeStyle=orthogonalEdgeStyle;rounded=0;orthogonalLoop=1;jettySize=auto;html=1;entryX=0.5;entryY=0;entryDx=0;entryDy=0;exitX=0.5;exitY=1;exitDx=0;exitDy=0;" edge="1" parent="1" source="AU4acMlLYk_gXnLBwo3J-2" target="1XEhLyZAtqv81aEH1Q0F-1">
          <mxGeometry relative="1" as="geometry">
            <mxPoint x="310" y="220" as="targetPoint" />
            <mxPoint x="420" y="150" as="sourcePoint" />
          </mxGeometry>
        </mxCell>
        <mxCell id="1XEhLyZAtqv81aEH1Q0F-9" value="" style="edgeStyle=orthogonalEdgeStyle;rounded=0;orthogonalLoop=1;jettySize=auto;html=1;" edge="1" parent="1" source="1XEhLyZAtqv81aEH1Q0F-6" target="1XEhLyZAtqv81aEH1Q0F-8">
          <mxGeometry relative="1" as="geometry" />
        </mxCell>
        <mxCell id="1XEhLyZAtqv81aEH1Q0F-6" value="bill value = a randomized number between 0 and 10,000" style="whiteSpace=wrap;html=1;rounded=1;" vertex="1" parent="1">
          <mxGeometry x="230" y="380" width="120" height="60" as="geometry" />
        </mxCell>
        <mxCell id="1XEhLyZAtqv81aEH1Q0F-8" value="customer pay value =&lt;div&gt;&amp;nbsp;another randomized number between the bill value and 10,000&lt;/div&gt;" style="whiteSpace=wrap;html=1;rounded=1;" vertex="1" parent="1">
          <mxGeometry x="220" y="510" width="140" height="80" as="geometry" />
        </mxCell>
        <mxCell id="1XEhLyZAtqv81aEH1Q0F-15" value="" style="edgeStyle=orthogonalEdgeStyle;rounded=0;orthogonalLoop=1;jettySize=auto;html=1;" edge="1" parent="1" source="1XEhLyZAtqv81aEH1Q0F-10" target="1XEhLyZAtqv81aEH1Q0F-14">
          <mxGeometry relative="1" as="geometry" />
        </mxCell>
        <mxCell id="1XEhLyZAtqv81aEH1Q0F-10" value="compare the input value with the subtraction of customer pay value - bill value" style="whiteSpace=wrap;html=1;rounded=1;" vertex="1" parent="1">
          <mxGeometry x="450" y="370" width="160" height="80" as="geometry" />
        </mxCell>
        <mxCell id="1XEhLyZAtqv81aEH1Q0F-18" value="" style="edgeStyle=orthogonalEdgeStyle;rounded=0;orthogonalLoop=1;jettySize=auto;html=1;" edge="1" parent="1" source="1XEhLyZAtqv81aEH1Q0F-14" target="1XEhLyZAtqv81aEH1Q0F-17">
          <mxGeometry relative="1" as="geometry" />
        </mxCell>
        <mxCell id="1XEhLyZAtqv81aEH1Q0F-19" value="" style="edgeStyle=orthogonalEdgeStyle;rounded=0;orthogonalLoop=1;jettySize=auto;html=1;" edge="1" parent="1" source="1XEhLyZAtqv81aEH1Q0F-14" target="1XEhLyZAtqv81aEH1Q0F-17">
          <mxGeometry relative="1" as="geometry" />
        </mxCell>
        <mxCell id="1XEhLyZAtqv81aEH1Q0F-20" value="" style="edgeStyle=orthogonalEdgeStyle;rounded=0;orthogonalLoop=1;jettySize=auto;html=1;" edge="1" parent="1" source="1XEhLyZAtqv81aEH1Q0F-14" target="1XEhLyZAtqv81aEH1Q0F-17">
          <mxGeometry relative="1" as="geometry" />
        </mxCell>
        <mxCell id="1XEhLyZAtqv81aEH1Q0F-24" value="Yes" style="edgeLabel;html=1;align=center;verticalAlign=middle;resizable=0;points=[];" vertex="1" connectable="0" parent="1XEhLyZAtqv81aEH1Q0F-20">
          <mxGeometry x="0.059" relative="1" as="geometry">
            <mxPoint x="-10" as="offset" />
          </mxGeometry>
        </mxCell>
        <mxCell id="1XEhLyZAtqv81aEH1Q0F-22" value="" style="edgeStyle=orthogonalEdgeStyle;rounded=0;orthogonalLoop=1;jettySize=auto;html=1;" edge="1" parent="1" source="1XEhLyZAtqv81aEH1Q0F-14" target="1XEhLyZAtqv81aEH1Q0F-21">
          <mxGeometry relative="1" as="geometry" />
        </mxCell>
        <mxCell id="1XEhLyZAtqv81aEH1Q0F-23" value="NO" style="edgeLabel;html=1;align=center;verticalAlign=middle;resizable=0;points=[];" vertex="1" connectable="0" parent="1XEhLyZAtqv81aEH1Q0F-22">
          <mxGeometry x="-0.1415" y="-1" relative="1" as="geometry">
            <mxPoint x="-12" as="offset" />
          </mxGeometry>
        </mxCell>
        <mxCell id="1XEhLyZAtqv81aEH1Q0F-14" value="are the tow values equal to each other?" style="rhombus;whiteSpace=wrap;html=1;rounded=1;" vertex="1" parent="1">
          <mxGeometry x="480" y="520" width="100" height="100" as="geometry" />
        </mxCell>
        <mxCell id="1XEhLyZAtqv81aEH1Q0F-26" value="" style="edgeStyle=orthogonalEdgeStyle;rounded=0;orthogonalLoop=1;jettySize=auto;html=1;exitX=1.033;exitY=0.56;exitDx=0;exitDy=0;exitPerimeter=0;entryX=0;entryY=0.5;entryDx=0;entryDy=0;" edge="1" parent="1" target="1XEhLyZAtqv81aEH1Q0F-31">
          <mxGeometry relative="1" as="geometry">
            <mxPoint x="653.9300000000001" y="753.6000000000001" as="sourcePoint" />
            <mxPoint x="629.97" y="250" as="targetPoint" />
            <Array as="points">
              <mxPoint x="670" y="754" />
              <mxPoint x="670" y="700" />
              <mxPoint x="620" y="700" />
              <mxPoint x="620" y="250" />
            </Array>
          </mxGeometry>
        </mxCell>
        <mxCell id="1XEhLyZAtqv81aEH1Q0F-17" value="run the correct answer function" style="whiteSpace=wrap;html=1;rounded=1;" vertex="1" parent="1">
          <mxGeometry x="540" y="720" width="120" height="60" as="geometry" />
        </mxCell>
        <mxCell id="1XEhLyZAtqv81aEH1Q0F-53" style="edgeStyle=orthogonalEdgeStyle;rounded=0;orthogonalLoop=1;jettySize=auto;html=1;entryX=-0.025;entryY=0.423;entryDx=0;entryDy=0;entryPerimeter=0;" edge="1" parent="1" source="1XEhLyZAtqv81aEH1Q0F-21" target="1XEhLyZAtqv81aEH1Q0F-32">
          <mxGeometry relative="1" as="geometry">
            <mxPoint x="940" y="237.57575757575756" as="targetPoint" />
            <Array as="points">
              <mxPoint x="450" y="800" />
              <mxPoint x="780" y="800" />
              <mxPoint x="780" y="244" />
            </Array>
          </mxGeometry>
        </mxCell>
        <mxCell id="1XEhLyZAtqv81aEH1Q0F-21" value="run the wrong answer function" style="whiteSpace=wrap;html=1;rounded=1;" vertex="1" parent="1">
          <mxGeometry x="390" y="720" width="120" height="60" as="geometry" />
        </mxCell>
        <mxCell id="1XEhLyZAtqv81aEH1Q0F-38" value="" style="edgeStyle=orthogonalEdgeStyle;rounded=0;orthogonalLoop=1;jettySize=auto;html=1;" edge="1" parent="1" source="1XEhLyZAtqv81aEH1Q0F-31" target="1XEhLyZAtqv81aEH1Q0F-37">
          <mxGeometry relative="1" as="geometry" />
        </mxCell>
        <mxCell id="1XEhLyZAtqv81aEH1Q0F-31" value="correct answer algorithm" style="rounded=1;whiteSpace=wrap;html=1;" vertex="1" parent="1">
          <mxGeometry x="640" y="210" width="120" height="80" as="geometry" />
        </mxCell>
        <mxCell id="1XEhLyZAtqv81aEH1Q0F-48" style="edgeStyle=orthogonalEdgeStyle;rounded=0;orthogonalLoop=1;jettySize=auto;html=1;entryX=0.5;entryY=0;entryDx=0;entryDy=0;" edge="1" parent="1" source="1XEhLyZAtqv81aEH1Q0F-32" target="1XEhLyZAtqv81aEH1Q0F-44">
          <mxGeometry relative="1" as="geometry" />
        </mxCell>
        <mxCell id="1XEhLyZAtqv81aEH1Q0F-32" value="wrong answer algorithm" style="rounded=1;whiteSpace=wrap;html=1;" vertex="1" parent="1">
          <mxGeometry x="810" y="210" width="120" height="80" as="geometry" />
        </mxCell>
        <mxCell id="1XEhLyZAtqv81aEH1Q0F-40" value="" style="edgeStyle=orthogonalEdgeStyle;rounded=0;orthogonalLoop=1;jettySize=auto;html=1;" edge="1" parent="1" source="1XEhLyZAtqv81aEH1Q0F-37" target="1XEhLyZAtqv81aEH1Q0F-39">
          <mxGeometry relative="1" as="geometry" />
        </mxCell>
        <mxCell id="1XEhLyZAtqv81aEH1Q0F-37" value="display &#39;Correct!&#39; in the screen by adding a class to an excited html code" style="whiteSpace=wrap;html=1;rounded=1;" vertex="1" parent="1">
          <mxGeometry x="640" y="380" width="120" height="60" as="geometry" />
        </mxCell>
        <mxCell id="1XEhLyZAtqv81aEH1Q0F-42" value="" style="edgeStyle=orthogonalEdgeStyle;rounded=0;orthogonalLoop=1;jettySize=auto;html=1;" edge="1" parent="1" source="1XEhLyZAtqv81aEH1Q0F-39" target="1XEhLyZAtqv81aEH1Q0F-41">
          <mxGeometry relative="1" as="geometry" />
        </mxCell>
        <mxCell id="1XEhLyZAtqv81aEH1Q0F-39" value="Increment the score counter by 1" style="whiteSpace=wrap;html=1;rounded=1;" vertex="1" parent="1">
          <mxGeometry x="640" y="520" width="120" height="60" as="geometry" />
        </mxCell>
        <mxCell id="1XEhLyZAtqv81aEH1Q0F-41" value="run the random number generation function again&amp;nbsp;" style="whiteSpace=wrap;html=1;rounded=1;" vertex="1" parent="1">
          <mxGeometry x="640" y="620" width="120" height="60" as="geometry" />
        </mxCell>
        <mxCell id="1XEhLyZAtqv81aEH1Q0F-51" value="" style="edgeStyle=orthogonalEdgeStyle;rounded=0;orthogonalLoop=1;jettySize=auto;html=1;" edge="1" parent="1" source="1XEhLyZAtqv81aEH1Q0F-44" target="1XEhLyZAtqv81aEH1Q0F-50">
          <mxGeometry relative="1" as="geometry" />
        </mxCell>
        <mxCell id="1XEhLyZAtqv81aEH1Q0F-44" value="display &#39;Wrong answer the answer is: x&#39; in the screen by adding a class to an excited html code" style="whiteSpace=wrap;html=1;rounded=1;" vertex="1" parent="1">
          <mxGeometry x="800" y="370" width="140" height="80" as="geometry" />
        </mxCell>
        <mxCell id="1XEhLyZAtqv81aEH1Q0F-45" value="" style="edgeStyle=orthogonalEdgeStyle;rounded=0;orthogonalLoop=1;jettySize=auto;html=1;" edge="1" source="1XEhLyZAtqv81aEH1Q0F-46" target="1XEhLyZAtqv81aEH1Q0F-47" parent="1">
          <mxGeometry relative="1" as="geometry" />
        </mxCell>
        <mxCell id="1XEhLyZAtqv81aEH1Q0F-46" value="reset the score to 0" style="whiteSpace=wrap;html=1;rounded=1;" vertex="1" parent="1">
          <mxGeometry x="810" y="570" width="120" height="60" as="geometry" />
        </mxCell>
        <mxCell id="1XEhLyZAtqv81aEH1Q0F-55" value="" style="edgeStyle=orthogonalEdgeStyle;rounded=0;orthogonalLoop=1;jettySize=auto;html=1;" edge="1" parent="1" source="1XEhLyZAtqv81aEH1Q0F-47" target="1XEhLyZAtqv81aEH1Q0F-54">
          <mxGeometry relative="1" as="geometry" />
        </mxCell>
        <mxCell id="1XEhLyZAtqv81aEH1Q0F-56" style="edgeStyle=orthogonalEdgeStyle;rounded=0;orthogonalLoop=1;jettySize=auto;html=1;entryX=-0.007;entryY=0.423;entryDx=0;entryDy=0;entryPerimeter=0;" edge="1" parent="1" target="1XEhLyZAtqv81aEH1Q0F-57">
          <mxGeometry relative="1" as="geometry">
            <mxPoint x="960" y="240.00272727272727" as="targetPoint" />
            <mxPoint x="890" y="692.73" as="sourcePoint" />
            <Array as="points">
              <mxPoint x="960" y="693" />
              <mxPoint x="960" y="244" />
            </Array>
          </mxGeometry>
        </mxCell>
        <mxCell id="1XEhLyZAtqv81aEH1Q0F-47" value="run high score function to check it" style="whiteSpace=wrap;html=1;rounded=1;" vertex="1" parent="1">
          <mxGeometry x="810" y="670" width="120" height="60" as="geometry" />
        </mxCell>
        <mxCell id="1XEhLyZAtqv81aEH1Q0F-52" style="edgeStyle=orthogonalEdgeStyle;rounded=0;orthogonalLoop=1;jettySize=auto;html=1;" edge="1" parent="1" source="1XEhLyZAtqv81aEH1Q0F-50" target="1XEhLyZAtqv81aEH1Q0F-46">
          <mxGeometry relative="1" as="geometry" />
        </mxCell>
        <mxCell id="1XEhLyZAtqv81aEH1Q0F-50" value="change the x value with the correct answer" style="whiteSpace=wrap;html=1;rounded=1;" vertex="1" parent="1">
          <mxGeometry x="810" y="490" width="120" height="60" as="geometry" />
        </mxCell>
        <mxCell id="1XEhLyZAtqv81aEH1Q0F-54" value="run the random number generation function again&amp;nbsp;" style="whiteSpace=wrap;html=1;rounded=1;" vertex="1" parent="1">
          <mxGeometry x="810" y="770" width="120" height="60" as="geometry" />
        </mxCell>
        <mxCell id="1XEhLyZAtqv81aEH1Q0F-60" value="" style="edgeStyle=orthogonalEdgeStyle;rounded=0;orthogonalLoop=1;jettySize=auto;html=1;" edge="1" parent="1" source="1XEhLyZAtqv81aEH1Q0F-57" target="1XEhLyZAtqv81aEH1Q0F-59">
          <mxGeometry relative="1" as="geometry" />
        </mxCell>
        <mxCell id="1XEhLyZAtqv81aEH1Q0F-57" value="high score check function" style="rounded=1;whiteSpace=wrap;html=1;" vertex="1" parent="1">
          <mxGeometry x="1040" y="210" width="120" height="80" as="geometry" />
        </mxCell>
        <mxCell id="1XEhLyZAtqv81aEH1Q0F-58" style="edgeStyle=orthogonalEdgeStyle;rounded=0;orthogonalLoop=1;jettySize=auto;html=1;entryX=0.5;entryY=0;entryDx=0;entryDy=0;exitX=0.5;exitY=1;exitDx=0;exitDy=0;" edge="1" parent="1" source="AU4acMlLYk_gXnLBwo3J-2" target="1XEhLyZAtqv81aEH1Q0F-57">
          <mxGeometry relative="1" as="geometry">
            <mxPoint x="420" y="150" as="sourcePoint" />
            <mxPoint x="880" y="220" as="targetPoint" />
          </mxGeometry>
        </mxCell>
        <mxCell id="1XEhLyZAtqv81aEH1Q0F-62" value="" style="edgeStyle=orthogonalEdgeStyle;rounded=0;orthogonalLoop=1;jettySize=auto;html=1;entryX=0.502;entryY=0.051;entryDx=0;entryDy=0;entryPerimeter=0;" edge="1" parent="1" source="1XEhLyZAtqv81aEH1Q0F-59" target="1XEhLyZAtqv81aEH1Q0F-61">
          <mxGeometry relative="1" as="geometry" />
        </mxCell>
        <mxCell id="1XEhLyZAtqv81aEH1Q0F-59" value="receives a number and the current high score" style="whiteSpace=wrap;html=1;rounded=1;" vertex="1" parent="1">
          <mxGeometry x="1040" y="360" width="120" height="60" as="geometry" />
        </mxCell>
        <mxCell id="1XEhLyZAtqv81aEH1Q0F-64" value="" style="edgeStyle=orthogonalEdgeStyle;rounded=0;orthogonalLoop=1;jettySize=auto;html=1;" edge="1" parent="1" source="1XEhLyZAtqv81aEH1Q0F-61" target="1XEhLyZAtqv81aEH1Q0F-63">
          <mxGeometry relative="1" as="geometry" />
        </mxCell>
        <mxCell id="1XEhLyZAtqv81aEH1Q0F-70" value="No" style="edgeLabel;html=1;align=center;verticalAlign=middle;resizable=0;points=[];" vertex="1" connectable="0" parent="1XEhLyZAtqv81aEH1Q0F-64">
          <mxGeometry x="-0.0764" y="1" relative="1" as="geometry">
            <mxPoint as="offset" />
          </mxGeometry>
        </mxCell>
        <mxCell id="1XEhLyZAtqv81aEH1Q0F-68" value="" style="edgeStyle=orthogonalEdgeStyle;rounded=0;orthogonalLoop=1;jettySize=auto;html=1;" edge="1" parent="1" source="1XEhLyZAtqv81aEH1Q0F-61" target="1XEhLyZAtqv81aEH1Q0F-67">
          <mxGeometry relative="1" as="geometry" />
        </mxCell>
        <mxCell id="1XEhLyZAtqv81aEH1Q0F-69" value="Y&lt;span style=&quot;background-color: light-dark(#ffffff, var(--ge-dark-color, #121212)); color: light-dark(rgb(0, 0, 0), rgb(255, 255, 255));&quot;&gt;es&lt;/span&gt;" style="edgeLabel;html=1;align=center;verticalAlign=middle;resizable=0;points=[];" vertex="1" connectable="0" parent="1XEhLyZAtqv81aEH1Q0F-68">
          <mxGeometry x="0.1153" y="2" relative="1" as="geometry">
            <mxPoint as="offset" />
          </mxGeometry>
        </mxCell>
        <mxCell id="1XEhLyZAtqv81aEH1Q0F-61" value="&lt;div&gt;&lt;font&gt;is the number&amp;nbsp;&lt;/font&gt;&lt;/div&gt;&lt;div&gt;&lt;font&gt;higher than the current highscore?&lt;/font&gt;&lt;/div&gt;" style="rhombus;whiteSpace=wrap;html=1;rounded=1;" vertex="1" parent="1">
          <mxGeometry x="1030" y="480" width="140" height="100" as="geometry" />
        </mxCell>
        <mxCell id="1XEhLyZAtqv81aEH1Q0F-63" value="do nothing" style="whiteSpace=wrap;html=1;rounded=1;" vertex="1" parent="1">
          <mxGeometry x="980" y="630" width="120" height="60" as="geometry" />
        </mxCell>
        <mxCell id="1XEhLyZAtqv81aEH1Q0F-72" value="" style="edgeStyle=orthogonalEdgeStyle;rounded=0;orthogonalLoop=1;jettySize=auto;html=1;" edge="1" parent="1" source="1XEhLyZAtqv81aEH1Q0F-67" target="1XEhLyZAtqv81aEH1Q0F-71">
          <mxGeometry relative="1" as="geometry" />
        </mxCell>
        <mxCell id="1XEhLyZAtqv81aEH1Q0F-67" value="update the current high score to the new number" style="whiteSpace=wrap;html=1;rounded=1;" vertex="1" parent="1">
          <mxGeometry x="1130" y="630" width="120" height="60" as="geometry" />
        </mxCell>
        <mxCell id="1XEhLyZAtqv81aEH1Q0F-71" value="update the DOM" style="whiteSpace=wrap;html=1;rounded=1;" vertex="1" parent="1">
          <mxGeometry x="1130" y="770" width="120" height="60" as="geometry" />
        </mxCell>
      </root>
    </mxGraphModel>
  </diagram>
</mxfile>
